# xmcd CD database file
#
# Track frame offsets:
#	150
#	26684
#	51622
#	67782
#	93090
#	108370
#	126030
#	146816
#	169542
#
# Disc length: 2465 seconds
#
# Revision: 1
# Processed by: cddbd v1.5.2PL0 Copyright (c) Steve Scherf et al.
# Submitted via: CDex 1.70beta3
#
DISCID=75099f09
DTITLE=Tradia - From The Basement
DYEAR=2000
DGENRE=Melodic Hard Rock
TTITLE0=Didn't Lie
TTITLE1=Portrait In Blue
TTITLE2=Lovin Arms
TTITLE3=Now She's Gone
TTITLE4=Jefferson High
TTITLE5=Never Fell In Love Before(Remix)
TTITLE6=Standin In The Shadows
TTITLE7=Story
TTITLE8=Exiles
EXTD=YEAR: 2000
EXTT0=
EXTT1=
EXTT2=
EXTT3=
EXTT4=
EXTT5=
EXTT6=
EXTT7=
EXTT8=
PLAYORDER=
